<?xml version="1.0" encoding="utf-8"?>
<!-- Generator: Adobe Illustrator 15.0.0, SVG Export Plug-In . SVG Version: 6.00 Build 0)  -->
<!DOCTYPE svg PUBLIC "-//W3C//DTD SVG 1.1//EN" "http://www.w3.org/Graphics/SVG/1.1/DTD/svg11.dtd">
<svg version="1.1" id="Layer_1" xmlns="http://www.w3.org/2000/svg" xmlns:xlink="http://www.w3.org/1999/xlink" x="0px" y="0px"
	 width="612px" height="792px" viewBox="0 0 612 792" enable-background="new 0 0 612 792" xml:space="preserve">
<g>
	<defs>
		<rect id="SVGID_1_" x="-359.105" y="-562.781" width="896.105" height="1159.666"/>
	</defs>
	<clipPath id="SVGID_2_">
		<use xlink:href="#SVGID_1_"  overflow="visible"/>
	</clipPath>
	<path clip-path="url(#SVGID_2_)" fill="#3D715E" d="M510.347,268.498c-5.462-14.608-15.335-28.442-31.074-43.535
		c-13.363-12.818-23.183-21.214-41.793-29.236c-9.361-4.035-19.158-6.082-29.122-6.082c-25.693,0-52.395,12.999-81.618,39.739
		c-6.338,5.8-12.993,12.283-20.952,20.403c-12.824,13.082-25.624,26.276-38.431,39.474c-24.918,25.68-50.687,52.24-76.282,77.583
		c-6.544,6.479-14.248,14.179-21.781,22.166c-7.603,8.063-13.664,14.955-19.072,21.687c-6.155,7.663-11.133,14.737-15.216,21.625
		c-4.533,7.645-7.848,14.85-10.13,22.024c-2.448,7.685-3.664,15.356-3.609,22.803c0.053,7.861,1.521,15.774,4.364,23.52
		c7.076,19.277,16.947,29.718,31.361,43.671c25.168,24.354,48.986,36.195,72.82,36.195c43.601,0,80.501-39.279,123.228-84.764
		c12.695-13.51,25.819-27.483,39.767-41.111c10.36-10.126,20.597-20.411,30.829-30.693c8.029-8.073,16.055-16.143,24.149-24.134
		c17.276-17.068,32.628-32.65,45.513-50.544C513.938,320.618,519.673,293.438,510.347,268.498 M346.059,489.215
		c-41.204,43.861-76.791,81.739-116.248,81.739c-0.719,0-1.442-0.112-2.16-0.139c21.362-1.212,39.876-12.274,57.737-30.293
		c37.76-38.096,58.788-60.75,87.832-90.554c-33.453-31.611-60.526-56.928-95.529-90.002l-91.289,96.891l-6.869,7.288
		c-5.953,5.392-12.479,8.354-18.744,2.447c-7.791-7.347-4.447-13.949,1.075-19.724l1.171-1.185l51.125-51.861
		c7.15-7.326,14.312-14.642,21.444-21.985c6.882-7.084,13.509-14.508,20.816-21.158c1.957-1.781,4.144-3.654,4.687-6.394
		c0.605-3.041-1.309-5.826-3.356-7.874c-3.867-3.918-6.976-4.252-9.678-3.006l0.423-0.429c-0.148,0.144-0.301,0.296-0.449,0.441
		c-16.36,15.965-33.147,33.5-51.228,52.282l-43.864,44.752l-3.396,3.466c0.991-0.982,1.926-1.937,2.907-2.912
		c-18.59,20.835-22.545,44.132-16.404,69.746c-0.482-1.126-1.015-2.227-1.44-3.388c-2.463-6.7-3.731-13.528-3.778-20.282
		c-0.045-6.437,1.017-13.107,3.159-19.831c2.06-6.477,5.083-13.034,9.241-20.045c3.852-6.496,8.577-13.206,14.445-20.509
		c5.245-6.532,11.147-13.242,18.574-21.117c7.43-7.884,15.063-15.508,21.549-21.931c17.229-17.058,34.504-34.645,51.557-52.149
		l135.147,127.896C371.029,462.658,358.332,476.148,346.059,489.215 M485.523,343.69c-12.451,17.291-27.506,32.57-44.47,49.325
		c-8.114,8.013-16.162,16.103-24.21,24.192c-6.225,6.253-12.497,12.449-18.749,18.668L262.729,307.775
		c3.841-3.955,7.697-7.925,11.503-11.846c12.794-13.188,25.581-26.366,38.397-39.44c7.83-7.993,14.368-14.359,20.577-20.039
		c27.376-25.049,51.957-37.228,75.15-37.228c8.651,0,17.175,1.783,25.33,5.301c17.146,7.388,31.014,19.93,43.745,32.138
		c14.662,14.063,19.005,21.979,23.942,35.188C509.514,293.609,504.179,317.78,485.523,343.69"/>
</g>
</svg>
