<?xml version="1.0" encoding="utf-8"?>
<!-- Generator: Adobe Illustrator 15.0.0, SVG Export Plug-In . SVG Version: 6.00 Build 0)  -->
<!DOCTYPE svg PUBLIC "-//W3C//DTD SVG 1.1//EN" "http://www.w3.org/Graphics/SVG/1.1/DTD/svg11.dtd">
<svg version="1.1" id="Layer_1" xmlns="http://www.w3.org/2000/svg" xmlns:xlink="http://www.w3.org/1999/xlink" x="0px" y="0px"
	 width="612px" height="792px" viewBox="0 0 612 792" enable-background="new 0 0 612 792" xml:space="preserve">
<g>
	<defs>
		<rect id="SVGID_1_" width="612" height="792"/>
	</defs>
	<clipPath id="SVGID_2_">
		<use xlink:href="#SVGID_1_"  overflow="visible"/>
	</clipPath>
	<path clip-path="url(#SVGID_2_)" fill="#FFFFFF" d="M218.049,401.217c-5.001,4.951-9.968,9.937-14.796,15.057
		c-4.451,4.721-8.79,9.558-12.856,14.617c-3.675,4.574-7.135,9.337-10.129,14.387c-2.692,4.541-5.011,9.33-6.615,14.367
		c-1.497,4.703-2.345,9.616-2.31,14.557c0.035,5.107,1.022,10.168,2.78,14.958c4.647,12.664,11.108,19.395,20.622,28.602
		c61.717,59.729,99.047-5.108,156.49-61.233c1.325-1.295,2.623-2.62,3.942-3.921l-97.124-91.921
		C244.774,374.342,231.463,387.935,218.049,401.217"/>
	<path clip-path="url(#SVGID_2_)" fill="#FFFFFF" d="M430.734,332.871c-4.142-11.075-8.717-17.157-17.152-25.246
		c-9.293-8.911-18.878-17.436-30.844-22.594c-26.825-11.563-52.775,4.686-72.128,22.395c-4.869,4.456-9.564,9.098-14.183,13.811
		c-12.804,13.063-25.575,26.286-38.374,39.448l97.124,91.922c11.255-11.104,22.346-22.403,33.594-33.514
		c10.864-10.73,21.779-21.677,30.727-34.103C430.52,369.683,437.688,351.465,430.734,332.871"/>
	<path clip-path="url(#SVGID_2_)" fill="#3D715E" d="M433.797,331.726c-3.729-9.976-10.474-19.424-21.223-29.732
		c-9.126-8.753-15.832-14.488-28.542-19.967c-6.394-2.756-13.085-4.153-19.89-4.153c-17.548,0-35.782,8.877-55.741,27.14
		c-4.328,3.96-8.874,8.388-14.31,13.933c-8.758,8.935-17.499,17.945-26.246,26.959c-17.018,17.54-34.617,35.678-52.098,52.987
		c-4.468,4.424-9.73,9.683-14.874,15.138c-5.193,5.508-9.333,10.214-13.026,14.812c-4.204,5.233-7.603,10.064-10.393,14.769
		c-3.095,5.221-5.358,10.141-6.917,15.042c-1.672,5.248-2.502,10.486-2.465,15.572c0.036,5.369,1.039,10.773,2.98,16.062
		c4.832,13.166,11.574,20.297,21.418,29.825c17.189,16.634,33.456,24.72,49.732,24.72c29.778,0,54.979-26.825,84.16-57.889
		c8.67-9.228,17.633-18.771,27.158-28.077c7.077-6.916,14.067-13.94,21.055-20.963c5.484-5.514,10.966-11.024,16.493-16.482
		c11.8-11.656,22.284-22.298,31.083-34.518C436.249,367.323,440.166,348.759,433.797,331.726 M321.596,482.466
		c-28.141,29.955-52.445,55.825-79.393,55.825c-0.49,0-0.983-0.077-1.474-0.095c14.59-0.828,27.234-8.384,39.432-20.689
		c25.788-26.018,40.149-41.489,59.985-61.844c-22.847-21.589-41.337-38.879-65.242-61.467l-62.347,66.171l-4.69,4.978
		c-4.066,3.684-8.523,5.706-12.802,1.672c-5.32-5.018-3.037-9.527,0.735-13.47l0.799-0.81l34.916-35.419
		c4.884-5.004,9.774-10,14.646-15.016c4.7-4.837,9.227-9.908,14.216-14.449c1.337-1.217,2.83-2.496,3.202-4.367
		c0.413-2.077-0.894-3.979-2.293-5.378c-2.641-2.676-4.764-2.904-6.609-2.053l0.288-0.293c-0.101,0.098-0.204,0.203-0.306,0.302
		c-11.173,10.903-22.638,22.879-34.987,35.706l-29.956,30.563l-2.32,2.367c0.677-0.671,1.316-1.322,1.986-1.989
		c-12.697,14.229-15.398,30.141-11.204,47.634c-0.33-0.769-0.693-1.521-0.984-2.313c-1.681-4.576-2.548-9.239-2.58-13.852
		c-0.032-4.396,0.694-8.953,2.157-13.544c1.407-4.424,3.472-8.902,6.311-13.69c2.631-4.437,5.858-9.019,9.866-14.007
		c3.582-4.461,7.613-9.044,12.685-14.422c5.075-5.384,10.287-10.591,14.717-14.978c11.767-11.65,23.564-23.661,35.211-35.615
		l92.3,87.347C338.649,464.329,329.978,473.543,321.596,482.466 M416.844,383.08c-8.504,11.809-18.785,22.244-30.371,33.687
		c-5.541,5.473-11.038,10.997-16.534,16.522c-4.25,4.271-8.534,8.502-12.805,12.749l-92.448-87.487
		c2.623-2.701,5.257-5.412,7.855-8.09c8.739-9.007,17.472-18.007,26.224-26.936c5.349-5.458,9.813-9.806,14.054-13.685
		c18.696-17.108,35.484-25.425,51.324-25.425c5.909,0,11.729,1.218,17.3,3.62c11.71,5.046,21.18,13.611,29.876,21.95
		c10.014,9.604,12.979,15.01,16.352,24.031C433.229,348.877,429.585,365.384,416.844,383.08"/>
</g>
</svg>
